<?xml version="1.0" encoding="UTF-8"?>
<svg id="Layer_1" xmlns="http://www.w3.org/2000/svg" version="1.1" viewBox="0 0 120 24">
  <!-- Generator: Adobe Illustrator 29.1.0, SVG Export Plug-In . SVG Version: 2.1.0 Build 142)  -->
  <defs>
    <style>
      .st0 {
        fill: #b3b3b3;
      }
    </style>
  </defs>
  <path d="M12,0C5.4,0,0,5.4,0,12s5.4,12,12,12,12-5.4,12-12S18.6,0,12,0ZM17.8,13.2h-9.2l-4.9,4.2,3.7-9.1h11l2.2,2.5-2.7,2.4Z"/>
  <g>
    <g>
      <path d="M31.9,13.3V1.1h9.1l-.4,2.8h-5.1v1.8h4.9v2.7h-4.9v2h5.1l.4,2.8h-9.1Z"/>
      <path d="M40.7,13.3l3.8-6.4-3.4-5.7h4.3l1.7,3.1h0l1.7-3.1h4l-3.4,5.7,3.8,6.4h-4.3l-2-3.8h0l-2,3.8h-4Z"/>
      <path d="M53.4,13.3V1.1h6.5c.7,0,1.3.2,1.9.5.6.3,1,.7,1.3,1.3.3.5.5,1.2.5,1.8v.4c0,.7-.2,1.3-.5,1.9s-.8,1-1.3,1.4c-.6.4-1.2.5-1.9.5h-2.7v4.3h-3.7ZM57.1,6.2h1.6c.2,0,.4,0,.6-.1.2,0,.3-.2.4-.4,0-.2.1-.4.1-.6s0-.6-.3-.8c-.2-.2-.4-.4-.8-.4h-1.6v2.3Z"/>
      <path d="M64.3,13.3V1.1h3.7v9.2h4.4l.4,3h-8.5Z"/>
      <path d="M78.2,13.4c-.7,0-1.4-.1-2.1-.4-.6-.3-1.2-.7-1.7-1.1s-.9-1-1.1-1.7-.4-1.3-.4-2.1v-1.8c0-.7.1-1.4.4-2.1.3-.6.7-1.2,1.1-1.7s1-.9,1.7-1.1c.6-.3,1.3-.4,2.1-.4h1c.7,0,1.4.1,2.1.4s1.2.7,1.7,1.1.9,1,1.1,1.7c.3.6.4,1.3.4,2.1v1.8c0,.7-.1,1.4-.4,2.1s-.7,1.2-1.1,1.7-1,.9-1.7,1.1c-.6.3-1.3.4-2.1.4h-1ZM78.7,10.7c.3,0,.5,0,.7-.1.2,0,.4-.2.6-.4.2-.2.3-.3.4-.6,0-.2.1-.4.1-.7v-3.4c0-.2,0-.5-.1-.7,0-.2-.2-.4-.4-.6s-.4-.3-.6-.4c-.2,0-.5-.1-.7-.1s-.5,0-.7.1c-.2,0-.4.2-.6.4-.2.2-.3.3-.4.6,0,.2-.1.4-.1.7v3.4c0,.2,0,.5.1.7,0,.2.2.4.4.6.2.2.4.3.6.4.2,0,.5.1.7.1Z"/>
      <path d="M94.3,13.4c-.5,0-1,0-1.4-.2-.4-.1-.6-.4-.8-.7-.2-.3-.3-.8-.3-1.3s0-.4,0-.6c0-.2,0-.5-.2-.7-.1-.2-.3-.4-.5-.6-.2-.2-.5-.2-.9-.2h-1v4.3h-3.6V1.1h6.8c.6,0,1.1.1,1.6.3.5.2.9.6,1.3,1,.3.4.5,1,.5,1.7s-.1,1.1-.3,1.5-.5.8-.8,1.1c-.3.3-.7.5-1.1.7h0c.3.2.6.3.9.5.2.2.4.4.6.7.2.3.3.5.3.8,0,.3.1.5.1.8s0,.4,0,.6c0,.2,0,.5,0,.7,0,.2.1.4.3.6.1.2.3.3.5.3v.7c-.3.1-.7.2-1,.3-.4,0-.7,0-1.1,0ZM89.2,6.3h1.8c.2,0,.3,0,.5-.2.1-.1.3-.3.3-.5,0-.2.1-.4.1-.7,0-.4,0-.7-.3-.8-.2-.2-.4-.3-.6-.3h-1.9v2.4Z"/>
      <path d="M97.1,13.3V1.1h9.1l-.4,2.8h-5.1v1.8h4.9v2.7h-4.9v2h5.1l.4,2.8h-9.1Z"/>
      <path d="M115.9,13.4c-.5,0-1,0-1.4-.2-.4-.1-.6-.4-.8-.7-.2-.3-.3-.8-.3-1.3s0-.4,0-.6c0-.2,0-.5-.2-.7-.1-.2-.3-.4-.5-.6-.2-.2-.5-.2-.9-.2h-1v4.3h-3.6V1.1h6.8c.6,0,1.1.1,1.6.3.5.2.9.6,1.3,1,.3.4.5,1,.5,1.7s-.1,1.1-.3,1.5-.5.8-.8,1.1c-.3.3-.7.5-1.1.7h0c.3.2.6.3.9.5.2.2.4.4.6.7.2.3.3.5.3.8,0,.3.1.5.1.8s0,.4,0,.6c0,.2,0,.5,0,.7,0,.2.1.4.3.6.1.2.3.3.5.3v.7c-.3.1-.7.2-1,.3-.4,0-.7,0-1.1,0ZM110.8,6.3h1.8c.2,0,.3,0,.5-.2.1-.1.3-.3.3-.5,0-.2.1-.4.1-.7,0-.4,0-.7-.3-.8-.2-.2-.4-.3-.6-.3h-1.9v2.4Z"/>
    </g>
    <g>
      <path class="st0" d="M32.2,23.4v-9.1h1.9v.6h-.9v8h.9v.6h-1.9Z"/>
      <path class="st0" d="M36.5,22.6v-6h-2v-1.4h5.9v1.4h-2v6h-1.8Z"/>
      <path class="st0" d="M39.7,22.6l2.6-7.4h2.2l2.6,7.4h-1.9l-.5-1.5h-2.8l-.5,1.5h-1.7ZM42.4,19.9h1.9l-.9-2.8h0l-.9,2.8Z"/>
      <path class="st0" d="M50.2,22.7c-.6,0-1-.1-1.5-.3-.4-.2-.7-.5-.9-.9-.2-.4-.3-.8-.3-1.3v-5h1.8v5c0,.3.1.6.3.8.2.2.5.3.9.3s.6-.1.8-.3c.2-.2.3-.5.3-.8v-5h1.8v5c0,.5-.1.9-.4,1.3s-.6.7-1,.9c-.4.2-.9.3-1.5.3h-.4Z"/>
      <path class="st0" d="M56.6,22.6v-7.4h1.8v6h3l.2,1.4h-5Z"/>
      <path class="st0" d="M62.2,22.6v-1.3h1.8v-4.2h-1.8v-1c.3,0,.6,0,.9-.2s.7-.2,1-.4.6-.3.9-.5h.6v6.2h1.7v1.3h-5.2Z"/>
      <path class="st0" d="M72.3,22.6v-6.5h-2.3v-.9h5.7v.9h-2.3v6.5h-1.2Z"/>
      <path class="st0" d="M76.7,22.6v-7.4h4.9v.9h-3.7v2.3h3.3v.9h-3.3v2.4h3.7l.2.9h-5Z"/>
      <path class="st0" d="M85.1,22.7c-.5,0-1,0-1.4-.2-.4-.1-.8-.4-1-.7-.3-.3-.4-.8-.4-1.3h0c0-.2,0-.2,0-.2h1.1s0,0,0,.1h0c0,.4,0,.7.2.8.1.2.3.3.6.4s.6.1.9.1.7,0,.9-.1c.3,0,.5-.2.6-.4.1-.2.2-.4.2-.7s0-.5-.2-.6-.4-.3-.6-.4-.5-.2-.9-.3c-.3,0-.6-.2-.9-.3-.3,0-.6-.2-.8-.4-.3-.2-.5-.4-.6-.6-.2-.3-.2-.6-.2-1s.1-.8.4-1.1.6-.5,1-.7.9-.2,1.3-.2.9,0,1.3.2c.4.1.7.4,1,.7.2.3.4.7.4,1.2h0c0,.1-1,.1-1,.1v-.2c0-.2,0-.4-.2-.6-.1-.2-.3-.3-.6-.4s-.5-.1-.8-.1-.6,0-.8.1-.4.2-.6.3-.2.3-.2.6,0,.5.2.6c.2.2.4.3.6.4.3,0,.5.2.9.2.3,0,.6.2.9.2.3,0,.6.2.9.4.3.2.5.4.6.6.2.3.2.6.2,1s-.1,1-.4,1.3c-.3.3-.6.6-1.1.7-.4.2-.9.2-1.5.2Z"/>
      <path class="st0" d="M90.9,22.6v-6.5h-2.3v-.9h5.7v.9h-2.3v6.5h-1.2Z"/>
      <path class="st0" d="M95.3,22.6v-7.4h1l3.1,4.6.4.7h0v-5.3h1v7.4h-1l-3.2-4.8-.3-.5h0v5.3h-1Z"/>
      <path class="st0" d="M102.4,22.6v-7.4h4.9v.9h-3.7v2.3h3.3v.9h-3.3v2.4h3.7l.2.9h-5Z"/>
      <path class="st0" d="M110.1,22.6v-6.5h-2.3v-.9h5.7v.9h-2.3v6.5h-1.2Z"/>
      <path class="st0" d="M113.9,23.4v-.6h.9v-8h-.9v-.6h1.9v9.1h-1.9Z"/>
    </g>
  </g>
</svg>