<?xml version="1.0" encoding="UTF-8"?>
<svg id="Layer_1" xmlns="http://www.w3.org/2000/svg" version="1.1" viewBox="0 0 135 40">
  <!-- Generator: Adobe Illustrator 29.1.0, SVG Export Plug-In . SVG Version: 2.1.0 Build 142)  -->
  <defs>
    <style>
      .st0 {
        fill: #fff;
      }

      .st1 {
        fill: #f60;
      }

      .st2 {
        fill: #b3b3b3;
      }
    </style>
  </defs>
  <path class="st1" d="M20,0C9,0,0,9,0,20s9,20,20,20,20-9,20-20S31,0,20,0ZM29.6,22.1h-15.4l-8.2,7,6.1-15.1h18.3l3.6,4.1-4.5,4Z"/>
  <g>
    <g>
      <path class="st0" d="M44.9,20.6v-12.1h9.1l-.4,2.8h-5.1v1.8h4.9v2.7h-4.9v2h5.1l.4,2.8h-9.1Z"/>
      <path class="st0" d="M53.8,20.6l3.8-6.4-3.4-5.7h4.3l1.7,3.1h0l1.7-3.1h4l-3.4,5.7,3.8,6.4h-4.3l-2-3.8h0l-2,3.8h-4Z"/>
      <path class="st0" d="M66.5,20.6v-12.1h6.5c.7,0,1.3.2,1.9.5.6.3,1,.7,1.3,1.3.3.5.5,1.2.5,1.8v.4c0,.7-.2,1.3-.5,1.9s-.8,1-1.3,1.4c-.6.4-1.2.5-1.9.5h-2.7v4.3h-3.7ZM70.2,13.6h1.6c.2,0,.4,0,.6-.1.2,0,.3-.2.4-.4,0-.2.1-.4.1-.6s0-.6-.3-.8c-.2-.2-.4-.4-.8-.4h-1.6v2.3Z"/>
      <path class="st0" d="M77.3,20.6v-12.1h3.7v9.2h4.4l.4,3h-8.5Z"/>
      <path class="st0" d="M91.3,20.8c-.7,0-1.4-.1-2.1-.4-.6-.3-1.2-.7-1.7-1.1s-.9-1-1.1-1.7-.4-1.3-.4-2.1v-1.8c0-.7.1-1.4.4-2.1.3-.6.7-1.2,1.1-1.7s1-.9,1.7-1.1c.6-.3,1.3-.4,2.1-.4h1c.7,0,1.4.1,2.1.4s1.2.7,1.7,1.1.9,1,1.1,1.7c.3.6.4,1.3.4,2.1v1.8c0,.7-.1,1.4-.4,2.1s-.7,1.2-1.1,1.7-1,.9-1.7,1.1c-.6.3-1.3.4-2.1.4h-1ZM91.8,18c.3,0,.5,0,.7-.1.2,0,.4-.2.6-.4.2-.2.3-.3.4-.6,0-.2.1-.4.1-.7v-3.4c0-.2,0-.5-.1-.7,0-.2-.2-.4-.4-.6s-.4-.3-.6-.4c-.2,0-.5-.1-.7-.1s-.5,0-.7.1c-.2,0-.4.2-.6.4-.2.2-.3.3-.4.6,0,.2-.1.4-.1.7v3.4c0,.2,0,.5.1.7,0,.2.2.4.4.6.2.2.4.3.6.4.2,0,.5.1.7.1Z"/>
      <path class="st0" d="M107.3,20.8c-.5,0-1,0-1.4-.2-.4-.1-.6-.4-.8-.7-.2-.3-.3-.8-.3-1.3s0-.4,0-.6c0-.2,0-.5-.2-.7-.1-.2-.3-.4-.5-.6-.2-.2-.5-.2-.9-.2h-1v4.3h-3.6v-12.1h6.8c.6,0,1.1.1,1.6.3.5.2.9.6,1.3,1,.3.4.5,1,.5,1.7s-.1,1.1-.3,1.5-.5.8-.8,1.1c-.3.3-.7.5-1.1.7h0c.3.2.6.3.9.5.2.2.4.4.6.7.2.3.3.5.3.8,0,.3.1.5.1.8s0,.4,0,.6c0,.2,0,.5,0,.7,0,.2.1.4.3.6.1.2.3.3.5.3v.7c-.3.1-.7.2-1,.3-.4,0-.7,0-1.1,0ZM102.2,13.6h1.8c.2,0,.3,0,.5-.2.1-.1.3-.3.3-.5,0-.2.1-.4.1-.7,0-.4,0-.7-.3-.8-.2-.2-.4-.3-.6-.3h-1.9v2.4Z"/>
      <path class="st0" d="M110.1,20.6v-12.1h9.1l-.4,2.8h-5.1v1.8h4.9v2.7h-4.9v2h5.1l.4,2.8h-9.1Z"/>
      <path class="st0" d="M128.9,20.8c-.5,0-1,0-1.4-.2-.4-.1-.6-.4-.8-.7-.2-.3-.3-.8-.3-1.3s0-.4,0-.6c0-.2,0-.5-.2-.7-.1-.2-.3-.4-.5-.6-.2-.2-.5-.2-.9-.2h-1v4.3h-3.6v-12.1h6.8c.6,0,1.1.1,1.6.3.5.2.9.6,1.3,1,.3.4.5,1,.5,1.7s-.1,1.1-.3,1.5-.5.8-.8,1.1c-.3.3-.7.5-1.1.7h0c.3.2.6.3.9.5.2.2.4.4.6.7.2.3.3.5.3.8,0,.3.1.5.1.8s0,.4,0,.6c0,.2,0,.5,0,.7,0,.2.1.4.3.6.1.2.3.3.5.3v.7c-.3.1-.7.2-1,.3-.4,0-.7,0-1.1,0ZM123.9,13.6h1.8c.2,0,.3,0,.5-.2.1-.1.3-.3.3-.5,0-.2.1-.4.1-.7,0-.4,0-.7-.3-.8-.2-.2-.4-.3-.6-.3h-1.9v2.4Z"/>
    </g>
    <g>
      <path class="st2" d="M44.9,31.7v-9.1h1.9v.6h-.9v8h.9v.6h-1.9Z"/>
      <path class="st2" d="M47.8,30.9v-7.4h3.7c.4,0,.8,0,1.1.3s.6.4.8.8c.2.3.3.7.3,1.1v.2c0,.4-.1.8-.3,1.1-.2.3-.5.6-.8.8s-.7.3-1.1.3h-1.9v2.8h-1.8ZM49.6,26.7h1.4c.2,0,.3,0,.5-.1s.2-.2.3-.3c0-.1.1-.3.1-.5s0-.5-.2-.7-.4-.3-.7-.3h-1.4v1.9Z"/>
      <path class="st2" d="M54.4,30.9v-7.4h1.8v2.9h2.4v-2.9h1.8v7.4h-1.8v-3.1h-2.4v3.1h-1.8Z"/>
      <path class="st2" d="M61.3,30.9v-1.3h.9v-4.8h-.9v-1.3h3.5v1.3h-.9v4.8h.9v1.3h-3.5Z"/>
      <path class="st2" d="M67.7,30.9v-7.4h1.8v6h3l.2,1.4h-5Z"/>
      <path class="st2" d="M73.4,30.9v-1.3h1.8v-4.2h-1.8v-1c.3,0,.6,0,.9-.2.3,0,.7-.2,1-.3.3-.1.6-.3.9-.5h.6v6.2h1.7v1.3h-5.2Z"/>
      <path class="st2" d="M82,30.9v-7.4h1.8l2.3,5.8h0l2.3-5.8h1.9v7.4h-1.1v-6.1h0l-2.4,6.1h-1.2l-2.4-6.1h0v6.1h-1Z"/>
      <path class="st2" d="M91,30.9l2.9-7.4h1.3l2.9,7.4h-1.2l-.6-1.7h-3.4l-.6,1.7h-1.1ZM93.1,28.4h2.8l-1.4-3.6h0l-1.4,3.6Z"/>
      <path class="st2" d="M98.4,30.9v-.9h.9v-5.6h-.9v-.9h2.9v.9h-.9v5.6h.9v.9h-2.9Z"/>
      <path class="st2" d="M102.6,30.9v-7.4h1l3.1,4.6.4.7h0v-5.3h1v7.4h-1l-3.2-4.8-.3-.5h0v5.3h-1Z"/>
      <path class="st2" d="M109.8,30.9v-7.4h1l3.1,4.6.4.7h0v-5.3h1v7.4h-1l-3.2-4.8-.3-.5h0v5.3h-1Z"/>
      <path class="st2" d="M117,30.9v-7.4h4.9v.9h-3.7v2.3h3.3v.9h-3.3v2.4h3.7l.2.9h-5Z"/>
      <path class="st2" d="M124.7,30.9v-6.5h-2.3v-.9h5.7v.9h-2.3v6.5h-1.2Z"/>
      <path class="st2" d="M128.4,31.7v-.6h1v-8h-1v-.6h1.9v9.1h-1.9Z"/>
    </g>
  </g>
</svg>