<svg width="365" height="365" viewBox="0 0 365 365" fill="none"
    xmlns="http://www.w3.org/2000/svg">
    <ellipse cx="181.5" cy="182.5" rx="179.5" ry="182.5" fill="white"/>
    <g clip-path="url(#clip0_132_1045)">
        <path d="M183.014 -2.06635e-05C82.5072 -0.278592 0.400021 81.25 2.08512e-05 181.757C-0.349979 269.471 61.1786 342.871 143.436 360.807C149.136 362.05 154.529 357.7 154.529 351.864V313.143C154.529 304.579 149.557 296.814 141.8 293.179C109.1 277.857 86.45 244.664 86.45 206.164C86.45 196.85 87.7786 187.843 90.25 179.329C91.6429 174.543 98.0572 173.621 100.721 177.836C102.621 180.843 105.014 184.029 107.95 186.836C109.793 188.6 112.757 186.743 111.986 184.314C105.443 163.721 109.221 147.836 117.471 135.486C131.671 114.221 147.7 103.421 158.571 97.1214C174.979 87.6214 175.043 72.3214 172 50.0143C171.529 46.5428 174.564 43.5714 178.014 44.1928C195.279 47.2785 218.536 61.2571 228.507 86.6714C232.85 97.7357 229.707 112.7 225.75 127.193C219.321 150.729 222.164 173.007 239.936 175.229C250.986 176.607 255.621 170.443 257.143 162.336C258.079 157.357 264.786 156.343 267.186 160.807C274.45 174.329 278.564 189.793 278.557 206.214C278.543 252.121 246.436 290.421 203.421 299.95C197.571 301.243 192.036 296.75 192.036 290.757V281.086C192.036 274.279 194.521 267.707 199.029 262.6C204.293 256.636 207.621 247.843 207.621 238.036C207.621 220.064 196.443 205.493 182.65 205.493C168.857 205.493 157.679 220.064 157.679 238.036C157.679 247.857 161.014 256.657 166.293 262.621C170.807 267.729 173.307 274.307 173.307 281.129V301.786V355.864C173.307 360.893 177.421 365.014 182.457 365.014H182.507C185.7 365.014 188.879 364.929 192.036 364.771C288.4 359.814 365.007 280.114 365.007 182.514C365.007 84.9143 283.571 0.278551 183.014 -2.06635e-05Z" fill="url(#paint0_linear_132_1045)"/>
    </g>
    <defs>
        <linearGradient id="paint0_linear_132_1045" x1="-0.00146484" y1="182.507" x2="365.007" y2="182.507" gradientUnits="userSpaceOnUse">
            <stop stop-color="#FF7200"/>
            <stop offset="1" stop-color="#FF0000"/>
        </linearGradient>
        <clipPath id="clip0_132_1045">
            <rect width="365" height="365" fill="white"/>
        </clipPath>
    </defs>
</svg>
