<svg width="703" height="501" viewBox="0 0 703 501" fill="none"
    xmlns="http://www.w3.org/2000/svg">
    <path opacity="0.8" d="M388.238 98.9247C306.638 5.90063 200.558 -4.43538 157.718 2.02462C265.838 99.9458 236.258 139.724 299.498 226.424C344.378 285.584 441.278 205.004 443.318 273.344C445.358 341.684 293.378 407.984 193.418 410.024C510.638 522.224 608.558 245.804 625.898 139.724C537.158 243.764 466.778 185.625 388.238 98.9247Z" fill="white"/>
    <path opacity="0.8" d="M244.418 118.302C146.498 106.878 65.5779 148.902 37.3579 171.342C218.918 171.342 198.518 289.09 302.558 289.09C374.978 289.09 439.578 209.53 442.298 270.73C445.966 353.269 346.418 442.664 287.258 499.784C609.578 381.464 623.858 160.124 627.938 118.302C632.018 76.4798 667.718 71.3822 702.398 61.1821C670.778 27.5221 621.818 35.6821 578.978 49.9621C536.138 64.2421 517.778 49.9621 488.198 49.9621C496.358 64.2421 486.158 69.3422 549.398 94.8422C476.978 151.962 366.818 132.582 244.418 118.302Z" fill="white"/>
    <g opacity="0.8">
        <path d="M107.738 93.823C151.802 81.583 182.538 83.963 192.398 86.683C168.938 31.6017 61.8382 22.4243 0.638184 30.5843C18.3182 49.2839 64.4902 88.111 107.738 93.823Z" fill="white"/>
        <path d="M213.818 458.983C239.93 474.487 256.658 471.563 261.758 468.163C238.298 496.723 192.398 504.883 149.558 497.743C159.078 484.483 185.258 458.167 213.818 458.983Z" fill="white"/>
    </g>
</svg>
