<?xml version="1.0" encoding="utf-8"?>
<svg data-name="Layer 1" width="980.49384" height="751.89531" viewBox="0 0 980.49384 751.89531" xmlns="http://www.w3.org/2000/svg">
  <title>nakamoto</title>
  <rect x="313.49413" y="116.99986" width="2" height="107" fill="#585578"/>
  <rect x="313.49413" y="255.85045" width="2" height="94.14941" fill="#585578"/>
  <rect x="310.49413" y="364.99986" width="155" height="2" fill="#585578"/>
  <rect x="244.49413" y="391.99986" width="2" height="85" fill="#585578"/>
  <rect x="262.49413" y="491.99986" width="235" height="2" fill="#585578"/>
  <path d="M623.24692,551.05234" transform="translate(-109.75308 -74.05234)" fill="none" stroke="#585578" stroke-miterlimit="10" stroke-width="2"/>
  <path d="M623.24692,469.05234" transform="translate(-109.75308 -74.05234)" fill="none" stroke="#585578" stroke-miterlimit="10" stroke-width="2"/>
  <rect x="691.49413" y="48.99986" width="2" height="101" fill="#585578"/>
  <rect x="529.45995" y="165.99986" width="147.03418" height="2" fill="#585578"/>
  <rect x="512.49399" y="181.9999" width="2" height="135" fill="#585578"/>
  <path d="M424.24721,331.0522a17,17,0,1,1,17-17A17.019,17.019,0,0,1,424.24721,331.0522Zm0-32a15,15,0,1,0,15,15A15.01672,15.01672,0,0,0,424.24721,299.0522Z" transform="translate(-109.75308 -74.05234)" fill="#585578"/>
  <path d="M356.24721,584.0522a17,17,0,1,1,17-17A17.019,17.019,0,0,1,356.24721,584.0522Zm0-32a15,15,0,1,0,15,15A15.01672,15.01672,0,0,0,356.24721,552.0522Z" transform="translate(-109.75308 -74.05234)" fill="#585578"/>
  <circle cx="315.49384" cy="366" r="16" fill="#f93d3d"/>
  <rect x="728.49413" y="238.99986" width="166" height="2" fill="#585578"/>
  <rect x="711.49413" y="255.85045" width="2" height="94.14941" fill="#585578"/>
  <rect x="562.49413" y="364.99986" width="133" height="2" fill="#585578"/>
  <rect x="796.49413" y="373.99986" width="138" height="2" fill="#585578"/>
  <rect x="780.49413" y="391.99986" width="2" height="85" fill="#585578"/>
  <rect x="529.49413" y="491.99986" width="235" height="2" fill="#585578"/>
  <rect x="512.49413" y="414.99986" width="2" height="62" fill="#585578"/>
  <circle cx="712.49384" cy="240" r="16" fill="#f93d3d"/>
  <path d="M802.24721,257.0522a17,17,0,1,1,17-17A17.019,17.019,0,0,1,802.24721,257.0522Zm0-32a15,15,0,1,0,15,15A15.01672,15.01672,0,0,0,802.24721,225.0522Z" transform="translate(-109.75308 -74.05234)" fill="#585578"/>
  <path d="M623.24721,257.0522a17,17,0,1,1,17-17A17.019,17.019,0,0,1,623.24721,257.0522Zm0-32a15,15,0,1,0,15,15A15.01672,15.01672,0,0,0,623.24721,225.0522Z" transform="translate(-109.75308 -74.05234)" fill="#585578"/>
  <path d="M890.24721,467.0522a17,17,0,1,1,17-17A17.019,17.019,0,0,1,890.24721,467.0522Zm0-32a15,15,0,1,0,15,15A15.01672,15.01672,0,0,0,890.24721,435.0522Z" transform="translate(-109.75308 -74.05234)" fill="#585578"/>
  <circle cx="780.49384" cy="493" r="16" fill="#f93d3d"/>
  <path d="M623.24721,584.0522a17,17,0,1,1,17-17A17.019,17.019,0,0,1,623.24721,584.0522Zm0-32a15,15,0,1,0,15,15A15.01672,15.01672,0,0,0,623.24721,552.0522Z" transform="translate(-109.75308 -74.05234)" fill="#585578"/>
  <path d="M821.24721,457.0522a17,17,0,1,1,17-17A17.019,17.019,0,0,1,821.24721,457.0522Zm0-32a15,15,0,1,0,15,15A15.01672,15.01672,0,0,0,821.24721,425.0522Z" transform="translate(-109.75308 -74.05234)" fill="#585578"/>
  <path d="M356.24692,416.05234a20,20,0,1,0,20,20A20.0588,20.0588,0,0,0,356.24692,416.05234Zm0,6a6,6,0,1,1-6,6,6.02013,6.02013,0,0,1,6-6Zm0,28.88462a14.56987,14.56987,0,0,1-12-6.40385c.09616-4,8-6.20192,12-6.20192s11.90385,2.20192,12,6.20192a14.59411,14.59411,0,0,1-12,6.40385Z" transform="translate(-109.75308 -74.05234)" fill="#585578"/>
  <path d="M425.24692,143.05234a20,20,0,1,0,20,20A20.0588,20.0588,0,0,0,425.24692,143.05234Zm0,6a6,6,0,1,1-6,6,6.02013,6.02013,0,0,1,6-6Zm0,28.88462a14.56987,14.56987,0,0,1-12-6.40385c.09616-4,8-6.20192,12-6.20192s11.90385,2.20192,12,6.20192a14.59411,14.59411,0,0,1-12,6.40385Z" transform="translate(-109.75308 -74.05234)" fill="#585578"/>
  <path d="M802.24692,74.05234a20,20,0,1,0,20,20A20.0588,20.0588,0,0,0,802.24692,74.05234Zm0,6a6,6,0,1,1-6,6,6.02013,6.02013,0,0,1,6-6Zm0,28.88462a14.56987,14.56987,0,0,1-12-6.40385c.09616-4,8-6.20192,12-6.20192s11.90385,2.20192,12,6.20192a14.59411,14.59411,0,0,1-12,6.40385Z" transform="translate(-109.75308 -74.05234)" fill="#585578"/>
  <path d="M1032.24692,293.05234a20,20,0,1,0,20,20A20.0588,20.0588,0,0,0,1032.24692,293.05234Zm0,6a6,6,0,1,1-6,6,6.02013,6.02013,0,0,1,6-6Zm0,28.88462a14.56987,14.56987,0,0,1-12-6.40385c.09616-4,8-6.20192,12-6.20192s11.90385,2.20192,12,6.20192a14.59411,14.59411,0,0,1-12,6.40385Z" transform="translate(-109.75308 -74.05234)" fill="#585578"/>
  <path d="M1070.24692,428.05234a20,20,0,1,0,20,20A20.0588,20.0588,0,0,0,1070.24692,428.05234Zm0,6a6,6,0,1,1-6,6,6.02013,6.02013,0,0,1,6-6Zm0,28.88462a14.56987,14.56987,0,0,1-12-6.40385c.09616-4,8-6.20192,12-6.20192s11.90385,2.20192,12,6.20192a14.59411,14.59411,0,0,1-12,6.40385Z" transform="translate(-109.75308 -74.05234)" fill="#585578"/>
  <path d="M261.75282,807.34635c-2.84542,25.87621-152.22585,23.704-151.99949-.00154C112.59871,781.47014,261.97914,783.64237,261.75282,807.34635Z" transform="translate(-109.75308 -74.05234)" fill="#e6e6e6"/>
  <polygon points="103.754 668.156 109.81 681.276 120.911 680.267 127.976 657.054 116.874 650.999 103.754 668.156" fill="#ffb8b8"/>
  <polygon points="65.642 698.373 65.403 707.516 82.56 708.525 82.56 697.424 65.642 698.373" fill="#ffb8b8"/>
  <polygon points="71.458 531.908 75.495 612.647 65.403 700.451 95.68 704.488 114.856 593.472 120.911 517.778 71.458 531.908" fill="#2f2e41"/>
  <path d="M133.777,576.69193s-12.11093,79.7303,13.12018,105.97066,59.54542,72.66559,59.54542,72.66559l24.22186-30.27733L169.10055,659.45l12.11093-44.40676,49.453-23.21262-8.07395-55.50844-72.6656-1.00924Z" transform="translate(-109.75308 -74.05234)" fill="#2f2e41"/>
  <circle cx="83.56933" cy="295.74449" r="22.20338" fill="#ffb8b8"/>
  <path d="M174.14677,374.84306s-1.00925,31.28657-6.05547,35.32355,18.1664,21.19413,18.1664,21.19413l15.13867-24.22186V384.9355Z" transform="translate(-109.75308 -74.05234)" fill="#ffb8b8"/>
  <polygon points="74.486 343.179 62.233 324.677 55.31 334.096 45.218 362.355 53.292 472.362 100.726 473.371 106.782 347.216 91.643 329.05 74.486 343.179" fill="#d0cde1"/>
  <path d="M235.71067,424.296l8.074-1.00924s2.01849,1.00924,3.02773,8.074,13.12018,69.63786,13.12018,69.63786l-16.14791,76.70257-18.1664-24.22186,11.10169-42.38826-11.10169-42.38827Z" transform="translate(-109.75308 -74.05234)" fill="#2f2e41"/>
  <polygon points="23.015 349.234 16.959 349.234 1.821 430.983 15.95 494.566 30.079 471.353 26.042 446.122 28.061 423.919 35.126 410.798 23.015 349.234" fill="#2f2e41"/>
  <path d="M222.5905,751.2912s-6.05547-2.01849-6.05547,2.01849,4.037,16.14791,4.037,16.14791-6.05547,37.342,3.02773,35.32355,16.14791-19.17564,17.15716-24.22186,6.05546-31.28658,6.05546-31.28658,8.074-19.17564,3.02773-20.18488-19.17564-5.04622-19.17564-5.04622S238.73841,749.27271,222.5905,751.2912Z" transform="translate(-109.75308 -74.05234)" fill="#2f2e41"/>
  <path d="M193.32241,782.57778s-16.14791-10.09245-19.17564-2.01849a84.80084,84.80084,0,0,0-4.037,18.1664s-4.037,13.12017,12.11093,11.10169,14.12942-2.01849,15.13867-8.074S193.32241,782.57778,193.32241,782.57778Z" transform="translate(-109.75308 -74.05234)" fill="#2f2e41"/>
  <path d="M180.20223,369.79684l4.037-1.00925s3.02773-17.15715,10.09244-15.13866,25.23111,4.037,25.23111-4.037-17.15715-15.13867-27.24959-14.12942-27.2496,4.037-26.24036,19.17564,7.52165,29.86536,7.52165,29.86536l.526-8.97562Z" transform="translate(-109.75308 -74.05234)" fill="#2f2e41"/>
  <polygon points="91.643 355.29 74.486 343.179 91.643 329.05 97.6 336.197 91.643 355.29" fill="#d0cde1"/>
  <polygon points="59.347 354.281 74.486 343.179 62.375 325.013 55.31 334.096 59.347 354.281" fill="#d0cde1"/>
  <path d="M242.77538,423.28679l-32.29582-13.12018-7.56933-5.55084-22.708,100.41981-15.13866-45.416,4.5416-58.03155-41.88364,21.69876L141.851,491.9154l2.01849,26.24036L137.814,539.34989s-21.19413,15.13866-14.12942,31.28657,15.13866,17.15716,15.13866,17.15716,34.31431-32.29582,36.3328-40.36978,5.04622-22.20337,5.04622-22.20337,17.15716,64.59164,37.342,63.58239,20.18489-22.20337,20.18489-22.20337l-5.04622-22.20338L224.609,521.18349l4.037-38.35129Z" transform="translate(-109.75308 -74.05234)" fill="#2f2e41"/>
  <ellipse style="stroke: rgb(0, 0, 0); fill: rgb(255, 255, 255);" cx="514.336" cy="366.031" rx="35.611" ry="35.161"/>
  <path d="M 509.306 324.995 C 503.03 325.66 496.421 328.085 490.906 331.77 C 473.885 343.086 467.776 365.454 476.643 384.02 C 481.445 394.099 490.335 401.921 500.938 405.44 C 507.69 407.674 515.581 408.078 522.951 406.533 C 534.67 404.084 545.272 395.883 550.836 384.972 C 557.278 372.349 556.754 356.849 549.504 344.845 C 547.959 342.277 545.011 338.544 542.92 336.477 C 541.303 334.907 537.998 332.293 535.907 330.962 C 532.792 328.964 527.848 326.92 523.473 325.827 C 519.885 324.899 513.584 324.543 509.306 324.995 Z M 516.866 339.4 C 517.649 343.3 519.314 345.463 525.257 350.431 C 530.201 354.567 531.984 356.492 533.767 359.583 C 535.787 363.077 536.763 366.977 536.786 371.493 C 536.81 378.458 534.456 385.019 530.344 389.512 C 529.012 390.962 525.138 393.696 524.425 393.696 C 523.473 393.696 523.45 392.935 524.305 391.271 C 525.875 388.252 526.421 386.279 526.421 383.331 C 526.445 380.693 526.445 380.669 525.494 378.838 C 523.997 375.89 523.426 375.843 522.855 378.624 C 521.81 383.616 518.529 386.517 513.704 386.754 C 510.304 386.921 507.713 385.922 506.809 384.092 C 506.12 382.76 505.668 382.285 505.05 382.285 C 503.291 382.285 503.101 386.208 504.718 389.536 C 505.098 390.32 506.049 391.699 506.833 392.578 C 508.544 394.528 508.616 394.884 507.309 394.884 C 506.073 394.884 501.817 392.721 499.582 390.962 C 497.681 389.465 495.66 387.206 494.52 385.304 C 493.473 383.545 491.666 379.029 491.334 377.341 C 490.977 375.392 491.238 370.685 491.857 368.379 C 492.808 364.694 495.399 360.32 496.73 360.129 C 497.182 360.058 497.205 360.225 497.325 362.912 C 497.538 367.356 498.561 368.973 501.176 368.973 C 502.34 368.973 503.458 368.284 504.028 367.238 C 504.194 366.905 504.314 364.504 504.337 360.178 C 504.408 352.023 504.813 349.504 506.667 345.795 C 508.33 342.444 510.922 339.734 514.012 338.117 C 516.175 337 516.366 337.095 516.866 339.4 Z" style="fill: rgb(249, 61, 61);"/>
  <path d="M 523.712 355.043 C 523.712 355.09 524.258 356.064 524.924 357.23 C 526.54 360.011 527.966 362.863 529.916 367.191 C 530.819 369.14 531.675 370.756 531.842 370.756 C 532.079 370.756 532.127 370.375 532.056 369.33 C 531.865 365.931 530.368 362.174 527.942 358.965 C 526.327 356.826 523.712 354.401 523.712 355.043 Z" style="fill: rgb(249, 61, 61);"/>
</svg>