<?xml version="1.0" encoding="utf-8"?>
<svg data-name="Layer 1" width="727.20961" height="478.35985" viewBox="0 0 727.20961 478.35985" xmlns="http://www.w3.org/2000/svg" xmlns:bx="https://boxy-svg.com">
  <g transform="matrix(0.057772, 0.010187, 0.010195, -0.057825, 187.321808, 241.652008)" fill="#f83838" stroke="none" style="" bx:origin="0.5 0.5"/>
  <ellipse style="stroke: rgb(0, 0, 0); fill: rgb(249, 61, 61);" cx="336.378" cy="142.257" rx="100.104" ry="98.84"/>
  <path d="M 322.236 26.902 C 304.594 28.773 286.017 35.589 270.513 45.948 C 222.667 77.757 205.494 140.636 230.419 192.825 C 243.917 221.158 268.909 243.145 298.715 253.038 C 317.694 259.319 339.876 260.453 360.594 256.111 C 393.537 249.226 423.339 226.173 438.981 195.502 C 457.089 160.017 455.617 116.447 435.237 82.702 C 430.893 75.484 422.605 64.991 416.728 59.18 C 412.182 54.766 402.892 47.418 397.014 43.677 C 388.257 38.06 374.36 32.315 362.061 29.241 C 351.975 26.633 334.263 25.633 322.236 26.902 Z M 343.489 67.397 C 345.689 78.36 350.37 84.44 367.076 98.405 C 380.975 110.031 385.986 115.443 390.998 124.132 C 396.676 133.953 399.42 144.916 399.485 157.612 C 399.552 177.19 392.936 195.634 381.375 208.264 C 377.632 212.341 366.742 220.025 364.737 220.025 C 362.061 220.025 361.997 217.885 364.4 213.209 C 368.814 204.722 370.349 199.176 370.349 190.889 C 370.415 183.474 370.415 183.405 367.742 178.259 C 363.534 169.972 361.929 169.839 360.325 177.657 C 357.387 191.69 348.163 199.844 334.6 200.511 C 325.043 200.98 317.759 198.172 315.218 193.028 C 313.281 189.284 312.01 187.949 310.274 187.949 C 305.328 187.949 304.794 198.976 309.34 208.331 C 310.408 210.535 313.081 214.412 315.286 216.882 C 320.095 222.364 320.298 223.365 316.623 223.365 C 313.149 223.365 301.185 217.284 294.902 212.341 C 289.559 208.132 283.878 201.781 280.672 196.436 C 277.73 191.491 272.651 178.796 271.717 174.051 C 270.713 168.572 271.446 155.34 273.187 148.857 C 275.861 138.499 283.144 126.204 286.885 125.667 C 288.155 125.467 288.22 125.936 288.558 133.49 C 289.157 145.982 292.032 150.528 299.384 150.528 C 302.656 150.528 305.798 148.591 307.401 145.651 C 307.866 144.714 308.205 137.965 308.269 125.805 C 308.468 102.88 309.607 95.8 314.819 85.373 C 319.494 75.953 326.78 68.335 335.466 63.79 C 341.547 60.649 342.083 60.917 343.489 67.397 Z" style="fill: rgb(230, 230, 230); stroke: rgb(47, 46, 65); stroke-width: 3px;" transform="matrix(0.978148, 0.207912, -0.207912, 0.978148, 36.962083, -66.602561)"/>
  <path d="M 363.162 113.432 C 363.162 113.565 364.697 116.303 366.569 119.581 C 371.112 127.398 375.12 135.415 380.602 147.581 C 383.141 153.059 385.546 157.603 386.016 157.603 C 386.683 157.603 386.818 156.532 386.618 153.594 C 386.081 144.039 381.872 133.477 375.053 124.457 C 370.513 118.445 363.162 111.628 363.162 113.432 Z" style="fill: rgb(230, 230, 230); stroke: rgb(47, 46, 65); stroke-width: 3px;" transform="matrix(0.999391, 0.034899, -0.034899, 0.999391, 4.952697, -13.002372)"/>
  <path d="M641.07551,438.03223a10.06359,10.06359,0,0,1,16.14152-.35236l33.83386-11.49994-4.69034,17.96759-31.41013,8.16592a10.111,10.111,0,0,1-13.87491-14.28121Z" transform="translate(-236.3952 -210.82008)" fill="#ffb8b8"/>
  <path d="M906.8265,687.74327a246.3025,246.3025,0,0,1,20.38471-77.7349q4.60066-10.27758,10.1275-20.10266c.94658-1.68531-1.64387-3.1994-2.59041-1.51416a249.70678,249.70678,0,0,0-27.786,76.65535q-2.08614,11.26864-3.13582,22.69637c-.17782,1.92159,2.8233,1.90947,3,0Z" transform="translate(-236.3952 -210.82008)" fill="#e6e6e6"/>
  <circle cx="708.20961" cy="364.89696" r="19" fill="#e6e6e6"/>
  <path d="M908.77008,688.2479a159.78768,159.78768,0,0,1,13.2245-50.43025q2.98467-6.66755,6.57018-13.04153a.97385.97385,0,0,0-1.68052-.98231,161.99628,161.99628,0,0,0-18.026,49.7299q-1.35338,7.31049-2.03435,14.72419c-.11537,1.24663,1.8316,1.23876,1.94624,0Z" transform="translate(-236.3952 -210.82008)" fill="#e6e6e6"/>
  <circle cx="696.88342" cy="404.75119" r="12.32619" fill="#e6e6e6"/>
  <path d="M906.31363,687.08433a159.78792,159.78792,0,0,1-20.59035-47.89713q-1.74758-7.093-2.84086-14.324a.97385.97385,0,0,0-1.92923.25909,161.9963,161.9963,0,0,0,16.37366,50.29816q3.42927,6.59658,7.45221,12.861c.67578,1.0539,2.20609-.1498,1.53457-1.197Z" transform="translate(-236.3952 -210.82008)" fill="#e6e6e6"/>
  <circle cx="644.54248" cy="403.88592" r="12.32619" fill="#e6e6e6"/>
  <path d="M807.70519,509.345a10.05577,10.05577,0,0,0-4.41761-14.773l2.59077-35.64081-16.20273,9.07222.02381,32.45424a10.11028,10.11028,0,0,0,18.00576,8.88731Z" transform="translate(-236.3952 -210.82008)" fill="#ffb8b8"/>
  <path d="M803.67441,370.79887,808.1048,484.217l-18-1-4-119,3.796-1.78637A9.66544,9.66544,0,0,1,803.67441,370.79887Z" transform="translate(-236.3952 -210.82008)" fill="#f93d3d"/>
  <polygon points="511.612 466.235 499.352 466.234 493.52 418.946 511.614 418.947 511.612 466.235" fill="#ffb8b8"/>
  <path d="M490.59492,462.7314h23.64384a0,0,0,0,1,0,0v14.88687a0,0,0,0,1,0,0H475.708a0,0,0,0,1,0,0v0A14.88688,14.88688,0,0,1,490.59492,462.7314Z" fill="#2f2e41"/>
  <polygon points="613.615 451.583 602.489 456.734 577.329 416.272 593.749 408.671 613.615 451.583" fill="#ffb8b8"/>
  <path d="M832.18824,665.52589h23.64382a0,0,0,0,1,0,0v14.88687a0,0,0,0,1,0,0H817.30134a0,0,0,0,1,0,0v0A14.88689,14.88689,0,0,1,832.18824,665.52589Z" transform="translate(-441.70979 202.89081) rotate(-24.84116)" fill="#2f2e41"/>
  <path d="M718.89695,522.728l12.64381,144.28893,17-2L761.1048,533.217l69.436,125.79985,18-5S790.6048,480.717,786.1048,466.217c-4.93306-15.89544-44-22-44-22l-1.5-1.5C723.81807,465.31456,717.09422,494.63543,718.89695,522.728Z" transform="translate(-236.3952 -210.82008)" fill="#2f2e41"/>
  <circle cx="549.8588" cy="114.53159" r="24.56103" fill="#ffb8b8"/>
  <path d="M801.67432,372.7425l-17.06982,88.97s-25.94043-5.18-35.18018-11.42c-3.66015-2.48-6.98-5.04-9.78027-7.36-.5498-.45-1.06982-.9-1.57959-1.33-4.62012-3.95-7.46-6.89-7.46-6.89s1.47949-7.25,3.28955-15.83c2.02-9.61,4.47022-20.9,5.72022-25.51,2.75-10.11,12.18994-21.89,19.5498-29.91a21.73771,21.73771,0,0,1,21.47022-6.36l13.31982,3.44A10.54333,10.54333,0,0,1,801.67432,372.7425Z" transform="translate(-236.3952 -210.82008)" fill="#f93d3d"/>
  <path d="M760.39405,411.60249s-9.17969,19.08-22.32959,30c-4.62012-3.95-7.46-6.89-7.46-6.89s1.47949-7.25,3.28955-15.83C744.91407,413.06251,756.27442,409.39253,760.39405,411.60249Z" transform="translate(-236.3952 -210.82008)" opacity="0.2"/>
  <path d="M776.67434,376.67731a16.32175,16.32175,0,0,0-2.83074-1.12454,12.49535,12.49535,0,0,0-11.54516,2.66016l-53.95753,39.523-42.91423,14.435,7.75377,18.34064,63.97572-15.62394,42.42971-37.70754A12.75365,12.75365,0,0,0,776.67434,376.67731Z" transform="translate(-236.3952 -210.82008)" fill="#f93d3d"/>
  <path d="M787.70774,349.6866c3.49562-5.2323,6.25435-12.48756,2.40565-17.4659-3.79907-4.91417-11.29215-4.19018-17.11054-6.36467-8.104-3.02866-12.80409-12.5493-11.33824-21.07564s8.31031-15.59442,16.464-18.48644,17.34839-1.95148,25.33312,1.37886c9.82931,4.0997,18.26115,12.03028,21.79686,22.07626s1.6456,22.10807-5.68929,29.82962c-7.86381,8.27835-20.20556,10.48454-31.62276,10.35068" transform="translate(-236.3952 -210.82008)" fill="#2f2e41"/>
  <path d="M826.27656,320.72688c1.00062,5.591,7.13392,8.76649,12.77076,9.46443s11.46786-.197,16.9553,1.269c9.67415,2.58443,16.05479,11.88813,19.56679,21.26546s5.06949,19.49827,9.63252,28.41158S898.6125,397.9087,908.59115,397.075a25.732,25.732,0,0,1-48.39435-1.5693c-3.66577-11.31688.54221-24.81289-5.86843-34.83353-3.54741-5.54505-9.673-8.80672-15.57943-11.71293s-12.10571-5.88925-16.0657-11.1476-4.75122-13.56286.12875-17.98074" transform="translate(-236.3952 -210.82008)" fill="#2f2e41"/>
  <path d="M945.8799,688.96447h-320.294a1.19068,1.19068,0,1,1,0-2.38136h320.294a1.19068,1.19068,0,1,1,0,2.38136Z" transform="translate(-236.3952 -210.82008)" fill="#3f3d56"/>
  <path d="M557.8799,688.96447h-320.294a1.19068,1.19068,0,1,1,0-2.38136h320.294a1.19068,1.19068,0,0,1,0,2.38136Z" transform="translate(-236.3952 -210.82008)" fill="#3f3d56"/>
  <polygon points="205.801 465.134 217.522 461.537 209.226 414.618 191.928 419.927 205.801 465.134" fill="#a0616a"/>
  <path d="M439.99337,667.39612h38.53072a0,0,0,0,1,0,0V682.283a0,0,0,0,1,0,0H454.88023a14.88686,14.88686,0,0,1-14.88686-14.88686v0A0,0,0,0,1,439.99337,667.39612Z" transform="translate(859.9015 974.42092) rotate(162.93912)" fill="#2f2e41"/>
  <polygon points="101.803 465.403 114.063 465.403 119.895 418.115 101.801 418.116 101.803 465.403" fill="#a0616a"/>
  <path d="M335.57139,672.7199h38.53073a0,0,0,0,1,0,0v14.88687a0,0,0,0,1,0,0H350.45824a14.88685,14.88685,0,0,1-14.88685-14.88685v0A0,0,0,0,1,335.57139,672.7199Z" transform="translate(473.30936 1149.49039) rotate(179.99738)" fill="#2f2e41"/>
  <path d="M341.31879,519.14611a9.16224,9.16224,0,0,1,.318-14.04558l9.50536-119.69459,19.33087,4.8297L354.99543,506.99417a9.21188,9.21188,0,0,1-13.67664,12.15194Z" transform="translate(-236.3952 -210.82008)" fill="#a0616a"/>
  <circle cx="150.63447" cy="104.60081" r="24.56103" fill="#a0616a"/>
  <path d="M353.48307,387.78045c-5.83678-8.01293-6.01662-19.04911.27076-26.71357,4.10314-5.00181,10.96646-9.00437,22.42531-9.00437,30.54289,0,42.12813,24.22367,42.12813,24.22367s12.63843,23.17047,5.266,44.23454-7.37242,23.17047-7.37242,23.17047l-48.44735-4.21282S375.92659,418.59163,353.48307,387.78045Z" transform="translate(-236.3952 -210.82008)" fill="#ccc"/>
  <path d="M338.54332,408.74829l10.4369-34.14579a16.32662,16.32662,0,0,1,23.09693-9.737h0a16.3562,16.3562,0,0,1,7.465,21.07435l-13.26866,30.21788Z" transform="translate(-236.3952 -210.82008)" fill="#ccc"/>
  <path d="M415.14766,438.42517l41.07492,212.747-22.11727,6.31922L380.392,517.41541,356.16828,660.651l-23.17047,3.15961S322.83406,474.292,367.75351,439.47837Z" transform="translate(-236.3952 -210.82008)" fill="#2f2e41"/>
  <path d="M470.35382,416.34308a10.52712,10.52712,0,0,0-.96265,1.3493L419.85612,420.094l-9.53834-29.11951L393.75593,398.846l15.58776,43.3713,61.26206-11.98076a10.4958,10.4958,0,1,0-.25193-13.89342Z" transform="translate(-236.3952 -210.82008)" fill="#a0616a"/>
  <path d="M386.29308,379.345a16.32553,16.32553,0,0,1,17.23283-18.2017h0a16.35576,16.35576,0,0,1,15.308,16.29482V410.4402l-28.36912,4.365Z" transform="translate(-236.3952 -210.82008)" fill="#ccc"/>
  <path d="M392.43111,340.20468c-3.68637-.01605-6.53017-3.89721-6.36493-7.57991s2.63866-6.92285,5.61865-9.09293,6.47479-3.49191,9.798-5.08739,6.61743-3.58561,8.66924-6.64822a14.7156,14.7156,0,0,0,1.02333-13.50438,21.66872,21.66872,0,0,0-9.33321-10.22418,28.68831,28.68831,0,0,0-20.41672-3.22806c-6.88849,1.51123-17.15443,5.69515-21.19035,11.47844l-4.20808,11.45787c-4.28786,5.15613-.968,12.81333,1.66783,18.97968s8.24814,10.80579,14.58112,13.0114a35.79392,35.79392,0,0,0,19.8411.59488" transform="translate(-236.3952 -210.82008)" fill="#2f2e41"/>
  <path d="M369.98453,302.04436c-1.80894-2.89931-4.94439-4.74325-8.18587-5.82543a25.72431,25.72431,0,0,0-33.83244,23.00283c-.34357,6.31437,1.63365,12.48912,2.79545,18.70518s1.39291,13.08161-2.03446,18.396c-2.61053,4.0478-6.96387,6.59634-11.26083,8.77251-3.58128,1.81371-7.45507,3.51578-11.45314,3.1544s-8.01642-3.52812-7.91033-7.54108a32.05406,32.05406,0,0,0-2.68162,9.08033c-.28128,3.15593.49658,6.56125,2.776,8.76193,3.3131,3.19859,8.56255,2.9646,13.1157,2.27441,9.85694-1.49417,19.83818-4.29543,27.62552-10.52031s12.95465-16.47494,10.90388-26.23127c-.85666-4.07547-2.86993-7.796-4.49677-11.62968s-2.89692-8.027-2.14959-12.124a14.73513,14.73513,0,0,1,7.49255-9.98176,19.60142,19.60142,0,0,1,12.52266-1.899c2.79906.45932,6.29406,1.17251,7.95419-1.12742a4.50752,4.50752,0,0,0-.09367-4.80858,13.24764,13.24764,0,0,0-3.59258-3.5596" transform="translate(-236.3952 -210.82008)" fill="#2f2e41"/>
</svg>