<?xml version="1.0" encoding="utf-8"?>
<svg version="1.0" width="500.000000pt" height="500.000000pt" viewBox="0 0 500.000000 500.000000" preserveAspectRatio="xMidYMid meet" xmlns="http://www.w3.org/2000/svg" xmlns:bx="https://boxy-svg.com">
  <ellipse style="stroke: rgb(255, 255, 255); paint-order: fill; fill: rgb(255, 255, 255);" cx="250" cy="250" rx="167.566" ry="168.165"/>
  <g transform="matrix(0.109959, 0, 0, -0.110061, 9.371629, 491.458679)" fill="#f83838" stroke="none" bx:origin="0.5 0.5">
    <path d="M 1958.093 4228.558 C 1647.664 4195.634 1320.774 4075.696 1047.973 3893.437 C 206.053 3333.725 -96.144 2227.236 342.454 1308.885 C 579.979 810.318 1019.752 423.459 1544.188 249.431 C 1878.134 138.899 2268.521 118.91 2633.039 195.341 C 3212.741 316.455 3737.177 722.128 4012.329 1261.85 C 4330.989 1886.235 4305.119 2652.899 3946.481 3246.711 C 3870.049 3373.704 3724.242 3558.315 3620.766 3660.615 C 3540.807 3738.223 3377.362 3867.568 3273.886 3933.416 C 3119.847 4032.189 2875.267 4133.313 2658.908 4187.403 C 2481.353 4233.262 2169.748 4250.9 1958.093 4228.558 Z M 2332.018 3515.984 C 2370.821 3323.142 2453.132 3216.138 2747.098 2970.383 C 2991.678 2765.782 3079.868 2670.537 3168.058 2517.674 C 3268.006 2344.822 3316.217 2151.98 3317.393 1928.566 C 3318.569 1584.038 3202.158 1259.499 2998.733 1037.26 C 2932.885 965.532 2741.219 830.308 2705.943 830.308 C 2658.908 830.308 2657.732 867.936 2700.064 950.246 C 2777.671 1099.581 2804.716 1197.178 2804.716 1342.985 C 2805.891 1473.506 2805.891 1474.682 2758.857 1565.224 C 2684.777 1711.031 2656.557 1713.383 2628.336 1575.806 C 2576.598 1328.875 2414.328 1185.419 2175.628 1173.661 C 2007.479 1165.43 1879.31 1214.816 1834.627 1305.357 C 1800.527 1371.206 1778.185 1394.723 1747.613 1394.723 C 1660.599 1394.723 1651.192 1200.705 1731.151 1036.084 C 1749.964 997.281 1796.999 929.081 1835.803 885.574 C 1920.465 789.153 1923.993 771.515 1859.32 771.515 C 1798.175 771.515 1587.695 878.518 1477.164 965.532 C 1383.095 1039.612 1283.146 1151.319 1226.704 1245.388 C 1174.966 1332.402 1085.601 1555.817 1069.139 1639.303 C 1051.501 1735.724 1064.435 1968.545 1095.008 2082.604 C 1142.042 2264.863 1270.211 2481.223 1336.06 2490.63 C 1358.401 2494.157 1359.577 2485.926 1365.457 2353.053 C 1376.039 2133.167 1426.602 2053.208 1555.947 2053.208 C 1613.564 2053.208 1668.83 2087.308 1697.051 2139.046 C 1705.282 2155.508 1711.161 2274.27 1712.337 2488.278 C 1715.864 2891.6 1735.854 3016.241 1827.572 3199.676 C 1909.882 3365.473 2038.051 3499.522 2190.914 3579.481 C 2297.918 3634.746 2307.325 3630.043 2332.018 3515.984 Z" style=""/>
    <path d="M 2670.667 2742.265 C 2670.667 2739.913 2697.712 2691.703 2730.636 2634.085 C 2810.595 2496.509 2881.147 2355.405 2977.568 2141.398 C 3022.251 2044.977 3064.582 1965.018 3072.813 1965.018 C 3084.571 1965.018 3086.923 1983.832 3083.396 2035.57 C 3073.989 2203.718 2999.909 2389.505 2879.971 2548.247 C 2800.012 2654.075 2670.667 2774.013 2670.667 2742.265 Z" style=""/>
  </g>
</svg>