<?xml version="1.0" encoding="utf-8"?>
<svg width="70" height="38" viewBox="0 0 70 38" fill="none" xmlns="http://www.w3.org/2000/svg">
  <defs/>
  <path d="M55.2056 35.9099L37.2585 35.9099L37.2585 28.1224L55.2056 28.1224L55.2056 35.9099Z" fill="white"/>
  <path d="M37.2603 19.0005L37.2603 2.09044L45.5254 2.09044L45.5254 19.0005L37.2603 19.0005Z" fill="white"/>
  <path d="M55.2056 19.0005L37.2585 19.0005L37.2585 11.213L55.2056 11.213L55.2056 19.0005Z" fill="white"/>
  <path d="M14.9771 35.9102H32.9241V28.1226H14.9771V35.9102Z" fill="white"/>
  <path d="M14.9771 19.0002H32.9241V11.2127H14.9771V19.0002Z" fill="white"/>
  <path d="M14.9771 28.1218L14.977 11.2118L6.71194 11.2118L6.71194 28.1218L14.9771 28.1218Z" fill="white"/>
  <path d="M55.2056 28.123L55.2056 11.213L63.4707 11.213L63.4707 28.123L55.2056 28.123Z" fill="white"/>
</svg>